<?xml version="1.0" encoding="UTF-8"?>
<svg xmlns="http://www.w3.org/2000/svg" xmlns:xlink="http://www.w3.org/1999/xlink" viewBox="0 0 79.72 151.67">
  <defs>
    <style>
      .cls-1 {
        fill: url(#linear-gradient-2);
      }

      .cls-2 {
        fill: url(#linear-gradient-5);
      }

      .cls-2, .cls-3, .cls-4 {
        mix-blend-mode: multiply;
      }

      .cls-2, .cls-4 {
        opacity: .32;
      }

      .cls-3 {
        fill: url(#linear-gradient-6);
        opacity: .42;
      }

      .cls-5 {
        isolation: isolate;
      }

      .cls-4 {
        fill: url(#linear-gradient-8);
      }

      .cls-6 {
        fill: url(#linear-gradient-7);
      }

      .cls-7 {
        fill: url(#linear-gradient-3);
      }

      .cls-8 {
        fill: url(#linear-gradient);
      }

      .cls-9 {
        fill: url(#linear-gradient-4);
      }
    </style>
    <linearGradient id="linear-gradient" x1="23" y1="14.82" x2="23" y2="75.44" gradientUnits="userSpaceOnUse">
      <stop offset="0" stop-color="#df38ff"/>
      <stop offset="1" stop-color="#ff39ff"/>
    </linearGradient>
    <linearGradient id="linear-gradient-2" x1=".81" y1="-766.59" x2=".51" y2="-809.07" gradientTransform="translate(46.19 -739.03) rotate(-180)" gradientUnits="userSpaceOnUse">
      <stop offset="0" stop-color="#a553ff"/>
      <stop offset="1" stop-color="#ae38ff"/>
    </linearGradient>
    <linearGradient id="linear-gradient-3" x1="539.32" y1="-1083.02" x2="539.32" y2="-1022.4" gradientTransform="translate(596.03 -946.17) rotate(-180)" xlink:href="#linear-gradient"/>
    <linearGradient id="linear-gradient-4" x1="-515.51" y1="331.26" x2="-515.81" y2="288.77" gradientTransform="translate(549.84 -207.15)" xlink:href="#linear-gradient-2"/>
    <linearGradient id="linear-gradient-5" x1="1.69" y1="26.63" x2="40.99" y2="2.01" gradientUnits="userSpaceOnUse">
      <stop offset="0" stop-color="#8a0bff"/>
      <stop offset="1" stop-color="#2a0056" stop-opacity="0"/>
    </linearGradient>
    <linearGradient id="linear-gradient-6" x1="23.87" y1="41.15" x2="69.53" y2="10.57" xlink:href="#linear-gradient-5"/>
    <linearGradient id="linear-gradient-7" x1="12.28" y1="139.69" x2="57.94" y2="109.12" gradientUnits="userSpaceOnUse">
      <stop offset="0" stop-color="#2a0056" stop-opacity="0"/>
      <stop offset="1" stop-color="#8a0bff"/>
    </linearGradient>
    <linearGradient id="linear-gradient-8" x1="34.73" y1="153.1" x2="80.8" y2="122.26" xlink:href="#linear-gradient-7"/>
  </defs>
  <g class="cls-5">
    <g id="Camada_2" data-name="Camada 2">
      <g id="OBJECTS">
        <g>
          <polygon class="cls-8" points="11.41 117.36 0 123.94 0 19.97 34.59 0 46.01 6.59 11.41 26.56 11.41 117.36"/>
          <polygon class="cls-1" points="34.24 104.18 22.83 110.77 22.83 33.15 57.07 13.38 68.48 19.97 34.24 39.74 34.24 104.18"/>
          <polygon class="cls-7" points="68.3 34.31 79.72 27.72 79.72 131.69 45.12 151.67 33.71 145.08 68.3 125.11 68.3 34.31"/>
          <polygon class="cls-9" points="45.48 47.49 56.89 40.9 56.89 118.52 22.65 138.28 11.24 131.69 45.48 111.93 45.48 47.49"/>
          <polygon class="cls-2" points="0 19.97 11.41 26.56 46.01 6.59 34.59 0 0 19.97"/>
          <polygon class="cls-3" points="22.83 33.15 34.24 39.74 68.48 19.97 57.07 13.38 22.83 33.15"/>
          <polygon class="cls-6" points="45.48 111.93 56.89 118.52 22.65 138.28 11.24 131.69 45.48 111.93"/>
          <polygon class="cls-4" points="68.3 125.11 79.72 131.69 45.12 151.67 33.71 145.08 68.3 125.11"/>
        </g>
      </g>
    </g>
  </g>
</svg>