<?xml version="1.0" encoding="UTF-8"?>
<svg xmlns="http://www.w3.org/2000/svg" xmlns:xlink="http://www.w3.org/1999/xlink" viewBox="0 0 496.94 259.81">
  <defs>
    <style>
      .cls-1 {
        fill: url(#linear-gradient-2);
      }

      .cls-2 {
        fill: url(#linear-gradient-5);
      }

      .cls-2, .cls-3, .cls-4 {
        mix-blend-mode: multiply;
      }

      .cls-2, .cls-4 {
        opacity: .32;
      }

      .cls-3 {
        fill: url(#linear-gradient-6);
        opacity: .42;
      }

      .cls-5 {
        isolation: isolate;
      }

      .cls-6 {
        letter-spacing: .05em;
      }

      .cls-4 {
        fill: url(#linear-gradient-8);
      }

      .cls-7 {
        fill: #fff;
        font-family: Oswald-SemiBold, Oswald;
        font-size: 74.41px;
      }

      .cls-8 {
        fill: url(#radial-gradient);
        mix-blend-mode: color-dodge;
        opacity: .22;
      }

      .cls-9 {
        fill: url(#linear-gradient-7);
      }

      .cls-10 {
        letter-spacing: .06em;
      }

      .cls-11 {
        fill: url(#linear-gradient-3);
      }

      .cls-12 {
        fill: url(#linear-gradient);
      }

      .cls-13 {
        fill: url(#linear-gradient-4);
      }
    </style>
    <radialGradient id="radial-gradient" cx="129.91" cy="129.91" fx="129.91" fy="129.91" r="129.47" gradientUnits="userSpaceOnUse">
      <stop offset="0" stop-color="#ff00ea"/>
      <stop offset="1" stop-color="#20242b" stop-opacity="0"/>
    </radialGradient>
    <linearGradient id="linear-gradient" x1="113.05" y1="67.26" x2="113.05" y2="127.88" gradientUnits="userSpaceOnUse">
      <stop offset="0" stop-color="#df38ff"/>
      <stop offset="1" stop-color="#ff39ff"/>
    </linearGradient>
    <linearGradient id="linear-gradient-2" x1="915.79" y1="-166.1" x2="915.49" y2="-208.58" gradientTransform="translate(1051.23 -86.1) rotate(-180)" gradientUnits="userSpaceOnUse">
      <stop offset="0" stop-color="#a553ff"/>
      <stop offset="1" stop-color="#ae38ff"/>
    </linearGradient>
    <linearGradient id="linear-gradient-3" x1="1454.3" y1="-482.53" x2="1454.3" y2="-421.92" gradientTransform="translate(1601.06 -293.25) rotate(-180)" xlink:href="#linear-gradient"/>
    <linearGradient id="linear-gradient-4" x1="-425.46" y1="383.69" x2="-425.76" y2="341.21" gradientTransform="translate(549.84 -207.15)" xlink:href="#linear-gradient-2"/>
    <linearGradient id="linear-gradient-5" x1="91.74" y1="79.07" x2="131.04" y2="54.45" gradientUnits="userSpaceOnUse">
      <stop offset="0" stop-color="#8a0bff"/>
      <stop offset="1" stop-color="#2a0056" stop-opacity="0"/>
    </linearGradient>
    <linearGradient id="linear-gradient-6" x1="113.92" y1="93.59" x2="159.58" y2="63.01" xlink:href="#linear-gradient-5"/>
    <linearGradient id="linear-gradient-7" x1="102.33" y1="192.13" x2="147.99" y2="161.56" gradientUnits="userSpaceOnUse">
      <stop offset="0" stop-color="#2a0056" stop-opacity="0"/>
      <stop offset="1" stop-color="#8a0bff"/>
    </linearGradient>
    <linearGradient id="linear-gradient-8" x1="124.78" y1="205.54" x2="170.85" y2="174.69" xlink:href="#linear-gradient-7"/>
  </defs>
  <g class="cls-5">
    <g id="Camada_2" data-name="Camada 2">
      <g id="OBJECTS">
        <text class="cls-7" transform="translate(187.41 159.63)"><tspan class="cls-10" x="0" y="0">UJHE</tspan><tspan class="cls-6" x="163.32" y="0">S</tspan><tspan class="cls-10" x="204.4" y="0">SIE</tspan></text>
        <g>
          <rect class="cls-8" x="0" y="0" width="259.81" height="259.81" rx="129.91" ry="129.91"/>
          <g>
            <polygon class="cls-12" points="101.46 169.79 90.05 176.38 90.05 72.41 124.64 52.44 136.05 59.03 101.46 79 101.46 169.79"/>
            <polygon class="cls-1" points="124.29 156.62 112.88 163.2 112.88 85.59 147.12 65.82 158.53 72.41 124.29 92.18 124.29 156.62"/>
            <polygon class="cls-11" points="158.35 86.75 169.77 80.16 169.77 184.13 135.17 204.11 123.76 197.52 158.35 177.54 158.35 86.75"/>
            <polygon class="cls-13" points="135.53 99.93 146.94 93.34 146.94 170.95 112.7 190.72 101.29 184.13 135.53 164.37 135.53 99.93"/>
            <polygon class="cls-2" points="90.05 72.41 101.46 79 136.05 59.03 124.64 52.44 90.05 72.41"/>
            <polygon class="cls-3" points="112.88 85.59 124.29 92.18 158.53 72.41 147.12 65.82 112.88 85.59"/>
            <polygon class="cls-9" points="135.53 164.37 146.94 170.95 112.7 190.72 101.29 184.13 135.53 164.37"/>
            <polygon class="cls-4" points="158.35 177.54 169.77 184.13 135.17 204.11 123.76 197.52 158.35 177.54"/>
          </g>
        </g>
      </g>
    </g>
  </g>
</svg>