<svg width="198" height="35" viewBox="0 0 198 35" fill="none" xmlns="http://www.w3.org/2000/svg">
<path d="M45.6718 16.7872C46.0536 17.1711 46.0536 17.8292 45.6718 18.2679L37.9819 26.0001L32.4189 31.5937L30.2919 33.7324C29.9101 34.1163 29.2556 34.1163 28.8193 33.7324L27.7831 32.6905L25.6561 30.5518L21.1293 26.0001L13.4393 18.2679C13.0576 17.884 13.0576 17.2259 13.4393 16.7872L15.1301 15.0872L17.2571 12.9485L20.4203 9.76788C20.8021 9.38401 21.4566 9.38401 21.8929 9.76788L28.8739 16.7872C29.2556 17.1711 29.9101 17.1711 30.3464 16.7872L37.3274 9.76788C37.7092 9.38401 38.3636 9.38401 38.7999 9.76788L42.6177 13.6066L44.7447 15.7453L45.6718 16.7872Z" fill="white"/>
<path d="M35.1459 7.68386L30.2919 12.5645C29.9101 12.9484 29.2557 12.9484 28.8194 12.5645L23.9654 7.68386C23.5836 7.29999 23.5836 6.64193 23.9654 6.20322L28.8194 1.32257C29.2011 0.9387 29.8556 0.9387 30.2919 1.32257L35.1459 6.20322C35.5277 6.58709 35.5277 7.24515 35.1459 7.68386Z" fill="url(#paint0_linear_7_12)"/>
<path d="M23.5836 32.6903C24.2381 33.3484 23.7472 34.4452 22.8746 34.4452H17.3662C17.0935 34.4452 16.8208 34.3355 16.6572 34.1161L4.27682 21.7774L2.1498 19.6387L0.786329 18.2677C0.404557 17.8839 0.404557 17.2258 0.786329 16.7871L2.1498 15.4161L16.7117 0.829032C16.9298 0.609677 17.148 0.5 17.4207 0.5H22.9291C23.8563 0.5 24.2926 1.59677 23.6381 2.25484L15.1846 10.8097L13.0576 12.9484L9.23986 16.7871C8.85809 17.171 8.85809 17.829 9.23986 18.2677L23.5836 32.6903Z" fill="white"/>
<path d="M58.3249 18.2677L42.5086 34.171C42.2904 34.3903 42.0723 34.5 41.7996 34.5H33.7823L34.5459 33.7323L36.6729 31.5935L49.9259 18.2677C50.3076 17.8839 50.3076 17.2258 49.9259 16.7871L46.7626 13.6065L44.6356 11.4677L35.4731 2.25484C34.8186 1.59677 35.2549 0.5 36.1821 0.5H41.6905C41.9632 0.5 42.2359 0.609677 42.3995 0.829032L54.8344 13.3323L56.9614 15.471L58.3249 16.8419C58.7066 17.171 58.7066 17.829 58.3249 18.2677Z" fill="white"/>
<path d="M74.2592 34.98C71.6992 34.98 69.7472 34.26 68.4032 32.82C67.0592 31.348 66.3872 29.252 66.3872 26.532V0.899998H71.6672V26.916C71.6672 28.068 71.8912 28.9 72.3392 29.412C72.8192 29.924 73.4912 30.18 74.3552 30.18C75.2192 30.18 75.8752 29.924 76.3232 29.412C76.8032 28.9 77.0432 28.068 77.0432 26.916V0.899998H82.1312V26.532C82.1312 29.252 81.4592 31.348 80.1152 32.82C78.7712 34.26 76.8192 34.98 74.2592 34.98ZM87.1397 34.692C86.1797 34.692 85.3637 34.628 84.6917 34.5V29.7C85.2037 29.828 85.7797 29.892 86.4197 29.892C87.4757 29.892 88.2597 29.636 88.7717 29.124C89.2837 28.58 89.5397 27.764 89.5397 26.676V0.899998H94.8197V26.532C94.8197 29.284 94.1797 31.332 92.8997 32.676C91.6517 34.02 89.7317 34.692 87.1397 34.692ZM98.5948 0.899998H103.875V14.58H109.539V0.899998H114.819V34.5H109.539V19.38H103.875V34.5H98.5948V0.899998ZM118.751 0.899998H133.151V5.7H124.031V14.58H131.279V19.38H124.031V29.7H133.151V34.5H118.751V0.899998ZM143.146 34.98C140.586 34.98 138.65 34.26 137.338 32.82C136.026 31.348 135.37 29.252 135.37 26.532V24.612H140.362V26.916C140.362 29.092 141.274 30.18 143.098 30.18C143.994 30.18 144.666 29.924 145.114 29.412C145.594 28.868 145.834 28.004 145.834 26.82C145.834 25.412 145.514 24.18 144.874 23.124C144.234 22.036 143.05 20.74 141.322 19.236C139.146 17.316 137.626 15.588 136.762 14.052C135.898 12.484 135.466 10.724 135.466 8.772C135.466 6.116 136.138 4.068 137.482 2.628C138.826 1.156 140.778 0.419998 143.338 0.419998C145.866 0.419998 147.77 1.156 149.05 2.628C150.362 4.068 151.018 6.148 151.018 8.868V10.26H146.026V8.532C146.026 7.38 145.802 6.548 145.354 6.036C144.906 5.492 144.25 5.22 143.386 5.22C141.626 5.22 140.746 6.292 140.746 8.436C140.746 9.652 141.066 10.788 141.706 11.844C142.378 12.9 143.578 14.18 145.306 15.684C147.514 17.604 149.034 19.348 149.866 20.916C150.698 22.484 151.114 24.324 151.114 26.436C151.114 29.188 150.426 31.3 149.05 32.772C147.706 34.244 145.738 34.98 143.146 34.98ZM161.006 34.98C158.446 34.98 156.51 34.26 155.198 32.82C153.886 31.348 153.23 29.252 153.23 26.532V24.612H158.222V26.916C158.222 29.092 159.134 30.18 160.958 30.18C161.854 30.18 162.526 29.924 162.974 29.412C163.454 28.868 163.694 28.004 163.694 26.82C163.694 25.412 163.374 24.18 162.734 23.124C162.094 22.036 160.91 20.74 159.182 19.236C157.006 17.316 155.486 15.588 154.622 14.052C153.758 12.484 153.326 10.724 153.326 8.772C153.326 6.116 153.998 4.068 155.342 2.628C156.686 1.156 158.638 0.419998 161.198 0.419998C163.726 0.419998 165.63 1.156 166.91 2.628C168.222 4.068 168.878 6.148 168.878 8.868V10.26H163.886V8.532C163.886 7.38 163.662 6.548 163.214 6.036C162.766 5.492 162.11 5.22 161.246 5.22C159.486 5.22 158.606 6.292 158.606 8.436C158.606 9.652 158.926 10.788 159.566 11.844C160.238 12.9 161.438 14.18 163.166 15.684C165.374 17.604 166.894 19.348 167.726 20.916C168.558 22.484 168.974 24.324 168.974 26.436C168.974 29.188 168.286 31.3 166.91 32.772C165.566 34.244 163.598 34.98 161.006 34.98ZM172.001 0.899998H177.281V34.5H172.001V0.899998ZM181.235 0.899998H195.635V5.7H186.515V14.58H193.763V19.38H186.515V29.7H195.635V34.5H181.235V0.899998Z" fill="white"/>
<defs>
<linearGradient id="paint0_linear_7_12" x1="23.6791" y1="6.94354" x2="35.4322" y2="6.94354" gradientUnits="userSpaceOnUse">
<stop stop-color="#F44972"/>
<stop offset="0.33" stop-color="#FE4D58"/>
<stop offset="0.66" stop-color="#D43FC5"/>
<stop offset="1" stop-color="#B264F3"/>
</linearGradient>
</defs>
</svg>
