<svg width="59" height="35" viewBox="0 0 59 35" fill="none" xmlns="http://www.w3.org/2000/svg">
<path d="M45.6718 16.7872C46.0536 17.1711 46.0536 17.8292 45.6718 18.2679L37.9819 26.0001L32.4189 31.5937L30.2919 33.7324C29.9101 34.1163 29.2556 34.1163 28.8193 33.7324L27.7831 32.6905L25.6561 30.5518L21.1293 26.0001L13.4393 18.2679C13.0576 17.884 13.0576 17.2259 13.4393 16.7872L15.1301 15.0872L17.2571 12.9485L20.4203 9.76788C20.8021 9.38401 21.4566 9.38401 21.8929 9.76788L28.8739 16.7872C29.2556 17.1711 29.9101 17.1711 30.3464 16.7872L37.3274 9.76788C37.7092 9.38401 38.3636 9.38401 38.7999 9.76788L42.6177 13.6066L44.7447 15.7453L45.6718 16.7872Z" fill="white"/>
<path d="M35.1459 7.68386L30.2919 12.5645C29.9101 12.9484 29.2557 12.9484 28.8194 12.5645L23.9654 7.68386C23.5836 7.29999 23.5836 6.64193 23.9654 6.20322L28.8194 1.32257C29.2011 0.9387 29.8556 0.9387 30.2919 1.32257L35.1459 6.20322C35.5277 6.58709 35.5277 7.24515 35.1459 7.68386Z" fill="url(#paint0_linear_7_13)"/>
<path d="M23.5836 32.6903C24.2381 33.3484 23.7472 34.4452 22.8746 34.4452H17.3662C17.0935 34.4452 16.8208 34.3355 16.6572 34.1161L4.27682 21.7774L2.1498 19.6387L0.786329 18.2677C0.404557 17.8839 0.404557 17.2258 0.786329 16.7871L2.1498 15.4161L16.7117 0.829032C16.9298 0.609677 17.148 0.5 17.4207 0.5H22.9291C23.8563 0.5 24.2926 1.59677 23.6381 2.25484L15.1846 10.8097L13.0576 12.9484L9.23986 16.7871C8.85809 17.171 8.85809 17.829 9.23986 18.2677L23.5836 32.6903Z" fill="white"/>
<path d="M58.3249 18.2677L42.5086 34.171C42.2904 34.3903 42.0723 34.5 41.7996 34.5H33.7823L34.5459 33.7323L36.6729 31.5935L49.9259 18.2677C50.3076 17.8839 50.3076 17.2258 49.9259 16.7871L46.7626 13.6065L44.6356 11.4677L35.4731 2.25484C34.8186 1.59677 35.2549 0.5 36.1821 0.5H41.6905C41.9632 0.5 42.2359 0.609677 42.3995 0.829032L54.8344 13.3323L56.9614 15.471L58.3249 16.8419C58.7066 17.171 58.7066 17.829 58.3249 18.2677Z" fill="white"/>
<defs>
<linearGradient id="paint0_linear_7_13" x1="23.6791" y1="6.94354" x2="35.4322" y2="6.94354" gradientUnits="userSpaceOnUse">
<stop stop-color="#F44972"/>
<stop offset="0.33" stop-color="#FE4D58"/>
<stop offset="0.66" stop-color="#D43FC5"/>
<stop offset="1" stop-color="#B264F3"/>
</linearGradient>
</defs>
</svg>
