<svg width="70" height="70" viewBox="0 0 70 70" fill="none" xmlns="http://www.w3.org/2000/svg">
<path d="M53.711 33.2673L36.7318 16.289C35.7545 15.3111 34.1686 15.3111 33.1901 16.289L29.6643 19.8148L34.137 24.2875C35.1763 23.9363 36.3682 24.1719 37.1967 25.0004C38.0292 25.8342 38.2632 27.0363 37.9034 28.079L42.2139 32.3896C43.2567 32.0303 44.46 32.2627 45.2929 33.097C46.457 34.2606 46.457 36.1466 45.2929 37.311C44.1285 38.4755 42.2426 38.4755 41.0776 37.311C40.202 36.4345 39.9857 35.1486 40.4289 34.0699L36.4091 30.05L36.4086 40.6286C36.7 40.7726 36.9662 40.963 37.1967 41.1921C38.3608 42.3558 38.3608 44.2419 37.1967 45.4072C36.0324 46.5711 34.1455 46.5711 32.9828 45.4072C31.8187 44.2419 31.8187 42.3559 32.9828 41.1923C33.2617 40.9132 33.5933 40.6922 33.9582 40.542V29.8648C33.5927 29.7157 33.261 29.4945 32.9828 29.2145C32.1008 28.3337 31.8887 27.0396 32.3407 25.9567L27.9316 21.5472L16.2893 33.1888C15.311 34.1675 15.311 35.7536 16.2893 36.7316L33.2688 53.7103C34.2464 54.6883 35.832 54.6883 36.8107 53.7103L53.7109 36.8105C54.6888 35.8322 54.6888 34.2452 53.7109 33.2673" fill="#EF4444"/>
</svg>
