<svg width="70" height="70" viewBox="0 0 70 70" fill="none" xmlns="http://www.w3.org/2000/svg">
<path d="M52.1451 15.5556L49.0212 50.5515L34.979 54.4444L20.9755 50.557L17.8549 15.5556H52.1451Z" fill="#264DE4"/>
<path d="M46.3468 48.3231L49.0164 18.4174H35V51.4688L46.3468 48.3231Z" fill="#2965F1"/>
<path d="M25.0088 31.399L25.3936 35.6917H35V31.399H25.0088Z" fill="#EBEBEB"/>
<path d="M35 22.7102H34.9852H24.2357L24.626 27.003H35V22.7102Z" fill="#EBEBEB"/>
<path d="M35 47.014V42.5477L34.9812 42.5527L30.2003 41.2617L29.8947 37.8381H27.5715H25.5854L26.1868 44.5783L34.9802 47.0195L35 47.014Z" fill="#EBEBEB"/>
<path d="M40.2712 35.6916L39.773 41.2591L34.9852 42.5513V47.0174L43.7856 44.5784L43.8502 43.8531L44.8589 32.5516L44.9637 31.3989L45.7386 22.7102H34.9852V27.003H41.0341L40.6435 31.3989H34.9852V35.6916H40.2712Z" fill="#161724"/>
</svg>
