<svg width="70" height="70" viewBox="0 0 70 70" fill="none" xmlns="http://www.w3.org/2000/svg">
<path d="M15.5555 49.43C15.5555 52.1997 17.8006 54.4444 20.5699 54.4444H49.4299C52.1997 54.4444 54.4444 52.1994 54.4444 49.43V20.5701C54.4444 17.8003 52.1994 15.5555 49.43 15.5555H20.5701C17.8003 15.5555 15.5555 17.8006 15.5555 20.5699V49.4299V49.43Z" fill="#563D7C"/>
<path d="M31.682 32.7575V27.2503H36.5296C36.9914 27.2503 37.4365 27.2888 37.8652 27.3658C38.2939 27.4426 38.6732 27.58 39.003 27.7779C39.3326 27.9758 39.5965 28.2506 39.7944 28.6023C39.9922 28.9541 40.0913 29.4049 40.0913 29.9543C40.0913 30.9437 39.7944 31.6583 39.2008 32.0979C38.6073 32.5377 37.8488 32.7575 36.9253 32.7575H31.682ZM26.5044 23.227V46.773H37.9147C38.97 46.773 39.9978 46.6411 40.9982 46.3773C41.9985 46.1134 42.8888 45.7067 43.6694 45.1571C44.4497 44.6075 45.0709 43.8984 45.5325 43.0301C45.9943 42.1616 46.2251 41.1338 46.2251 39.9466C46.2251 38.4736 45.8678 37.215 45.1534 36.1708C44.4388 35.1264 43.356 34.3954 41.9049 33.9776C42.9602 33.4721 43.7573 32.8234 44.296 32.032C44.8345 31.2405 45.1038 30.2513 45.1038 29.064C45.1038 27.9648 44.9225 27.0414 44.5597 26.2939C44.1969 25.5465 43.6858 24.9474 43.0262 24.4967C42.3667 24.0459 41.5753 23.7216 40.6518 23.5238C39.7285 23.3259 38.7061 23.227 37.5849 23.227H26.5044ZM31.682 42.7497V36.2861H37.321C38.4423 36.2861 39.3437 36.5443 40.0253 37.0611C40.7068 37.5777 41.0477 38.4406 41.0477 39.6498C41.0477 40.2655 40.9432 40.771 40.7343 41.1668C40.5254 41.5625 40.2452 41.8759 39.8933 42.1066C39.5417 42.3375 39.1348 42.5024 38.6732 42.6014C38.2114 42.7001 37.7278 42.7497 37.2221 42.7497H31.682Z" fill="#161724"/>
</svg>
