<svg width="70" height="70" viewBox="0 0 70 70" fill="none" xmlns="http://www.w3.org/2000/svg">
<path d="M18.3197 34.9995C18.3197 41.6024 22.1567 47.308 27.7207 50.0122L19.7638 28.2109C18.81 30.3469 18.3178 32.6602 18.3197 34.9995ZM46.2611 34.1578C46.2611 32.0962 45.5206 30.6686 44.8854 29.5573C44.0399 28.1833 43.2477 27.0197 43.2477 25.6457C43.2477 24.1123 44.4103 22.685 46.0484 22.685C46.1224 22.685 46.1925 22.6942 46.2649 22.6983C43.2969 19.9795 39.343 18.3195 35.0003 18.3195C29.1728 18.3195 24.0459 21.3094 21.0633 25.838C21.4546 25.8498 21.8238 25.8577 22.1367 25.8577C23.8815 25.8577 26.5822 25.646 26.5822 25.646C27.4814 25.593 27.5874 26.9137 26.6895 27.02C26.6895 27.02 25.7856 27.1264 24.78 27.1791L30.8544 45.2471L34.5052 34.299L31.906 27.1787C31.0077 27.1261 30.1568 27.0197 30.1568 27.0197C29.2579 26.967 29.3633 25.5927 30.2622 25.6457C30.2622 25.6457 33.0169 25.8574 34.6559 25.8574C36.4004 25.8574 39.1015 25.6457 39.1015 25.6457C40.0013 25.5927 40.107 26.9134 39.2084 27.0197C39.2084 27.0197 38.3029 27.1261 37.2993 27.1787L43.3273 45.11L44.9908 39.5501C45.7123 37.2429 46.2611 35.5857 46.2611 34.1578Z" fill="#00749A"/>
<path d="M35.293 36.4586L30.2882 51.0013C31.8183 51.4522 33.4052 51.6811 35.0003 51.6811C36.9428 51.6811 38.8056 51.345 40.5396 50.7356C40.4931 50.6628 40.4534 50.5859 40.4209 50.5058L35.293 36.4586ZM49.637 26.9966C49.7087 27.5279 49.7493 28.0986 49.7493 28.7118C49.7493 30.4045 49.4332 32.3073 48.481 34.6866L43.3857 49.4181C48.3448 46.5262 51.6804 41.1536 51.6804 34.9995C51.6848 32.2023 50.9819 29.4493 49.637 26.9966Z" fill="#00749A"/>
<path d="M35.0003 15.5555C24.2788 15.5555 15.5557 24.278 15.5557 34.9995C15.5557 45.7222 24.2785 54.4447 35.0003 54.4447C45.7215 54.4447 54.4459 45.7226 54.4459 34.9995C54.4456 24.278 45.7215 15.5555 35.0003 15.5555ZM35.0003 53.5532C24.7705 53.5532 16.4473 45.23 16.4473 34.9995C16.4473 24.77 24.7702 16.4474 35.0003 16.4474C45.2299 16.4474 53.5524 24.77 53.5524 34.9995C53.5524 45.23 45.2295 53.5532 35.0003 53.5532Z" fill="#00749A"/>
</svg>
