<svg width="70" height="70" viewBox="0 0 70 70" fill="none" xmlns="http://www.w3.org/2000/svg">
<path d="M35.0001 16.0355C24.2625 16.0355 15.5555 24.741 15.5555 35.4801C15.5555 44.0713 21.127 51.3599 28.8529 53.931C29.8247 54.111 30.1815 53.5092 30.1815 52.9956C30.1815 52.532 30.1634 51.0001 30.1551 49.3754C24.7455 50.5516 23.604 47.0812 23.604 47.0812C22.7195 44.8336 21.4451 44.2362 21.4451 44.2362C19.681 43.0293 21.5781 43.054 21.5781 43.054C23.5307 43.1912 24.5588 45.0578 24.5588 45.0578C26.2931 48.0305 29.1076 47.171 30.2172 46.6743C30.3917 45.4174 30.8957 44.5598 31.4517 44.0742C27.1329 43.5824 22.5927 41.9151 22.5927 34.4646C22.5927 32.3418 23.3523 30.6071 24.5962 29.2454C24.3943 28.7556 23.7288 26.7779 24.7845 24.0996C24.7845 24.0996 26.4174 23.577 30.1332 26.0928C31.6841 25.6618 33.3476 25.4459 35.0001 25.4385C36.6526 25.4459 38.3172 25.6618 39.8712 26.0928C43.5826 23.577 45.2131 24.0996 45.2131 24.0996C46.2715 26.7779 45.6057 28.7556 45.4038 29.2454C46.6505 30.6071 47.4049 32.3416 47.4049 34.4646C47.4049 41.9328 42.8561 43.5774 38.5263 44.0586C39.2237 44.6621 39.8451 45.8455 39.8451 47.6595C39.8451 50.2611 39.8226 52.3551 39.8226 52.9956C39.8226 53.513 40.1726 54.1194 41.1583 53.9284C48.88 51.3544 54.4444 44.0684 54.4444 35.4801C54.4444 24.741 45.7387 16.0355 35.0001 16.0355Z" fill="white"/>
<path d="M22.8381 43.7347C22.7954 43.8313 22.6433 43.8602 22.5049 43.7941C22.3639 43.7306 22.2846 43.5989 22.3303 43.5019C22.3723 43.4024 22.5245 43.3747 22.6652 43.4415C22.8066 43.5048 22.8871 43.6378 22.8381 43.7347ZM23.7946 44.5881C23.7019 44.6741 23.5206 44.6342 23.3975 44.4983C23.2703 44.3627 23.2465 44.1816 23.3406 44.0942C23.4363 44.0083 23.6121 44.0484 23.7396 44.1842C23.8668 44.3213 23.8915 44.5014 23.7945 44.5883L23.7946 44.5881ZM24.4508 45.68C24.3316 45.7628 24.1367 45.6852 24.0164 45.5123C23.8973 45.3395 23.8973 45.1321 24.019 45.049C24.1397 44.9659 24.3316 45.0406 24.4536 45.2122C24.5725 45.388 24.5725 45.5954 24.4507 45.6802L24.4508 45.68ZM25.5604 46.9447C25.4538 47.0621 25.2269 47.0307 25.0607 46.8703C24.8908 46.7135 24.8434 46.491 24.9503 46.3734C25.0581 46.2557 25.2864 46.2888 25.4538 46.4479C25.6227 46.6043 25.6742 46.8285 25.5606 46.9447H25.5604ZM26.9945 47.3717C26.9477 47.5239 26.729 47.5931 26.5088 47.5285C26.2889 47.4618 26.145 47.2834 26.1893 47.1295C26.2351 46.9763 26.4547 46.9041 26.6766 46.9734C26.8962 47.0397 27.0404 47.2168 26.9947 47.3717H26.9945ZM28.6269 47.5527C28.6324 47.7132 28.4456 47.8461 28.2144 47.849C27.9818 47.8541 27.7938 47.7243 27.7914 47.5666C27.7914 47.4047 27.9739 47.2729 28.2063 47.2691C28.4375 47.2645 28.6269 47.3934 28.6269 47.5527ZM30.2303 47.4913C30.2581 47.6477 30.0973 47.8085 29.8678 47.8512C29.6421 47.8923 29.4332 47.7958 29.4044 47.6407C29.3763 47.4803 29.5401 47.3197 29.7653 47.2781C29.9953 47.2381 30.201 47.3322 30.2303 47.4913Z" fill="white"/>
</svg>
