<svg width="70" height="70" viewBox="0 0 70 70" fill="none" xmlns="http://www.w3.org/2000/svg">
<path d="M35 23.3365C29.8147 23.3365 26.574 25.9284 25.2775 31.1118C27.2222 28.5199 29.4908 27.5483 32.0832 28.196C33.5625 28.5656 34.6197 29.6389 35.7902 30.8264C37.6965 32.7609 39.9028 34.9997 44.7225 34.9997C49.9073 34.9997 53.1485 32.4078 54.4444 27.2239C52.5002 29.8159 50.2317 30.788 47.6388 30.1402C46.16 29.7706 45.1027 28.6974 43.9322 27.5099C42.026 25.5754 39.8192 23.3365 35 23.3365ZM25.2775 34.9997C20.0927 34.9997 16.8515 37.5917 15.5556 42.7756C17.4998 40.1836 19.7683 39.2115 22.3612 39.8598C23.8401 40.2298 24.8973 41.3026 26.0678 42.4896C27.974 44.4241 30.1808 46.6635 35 46.6635C40.1854 46.6635 43.426 44.0715 44.7225 38.8877C42.7778 41.4796 40.5092 42.4517 37.9168 41.8035C36.4375 41.4344 35.3803 40.3606 34.2098 39.1736C32.3035 37.2391 30.0972 34.9997 25.2775 34.9997Z" fill="#06B6D4"/>
</svg>
