<svg width="70" height="70" viewBox="0 0 70 70" fill="none" xmlns="http://www.w3.org/2000/svg">
<path d="M53.9628 21.3115L36.0285 53.9368C35.6582 54.6105 34.7069 54.6144 34.3311 53.9441L16.0413 21.3145C15.6318 20.5842 16.2457 19.6993 17.0594 19.8474L35.0129 23.1119C35.1275 23.1328 35.2448 23.1326 35.3592 23.1113L52.9372 19.852C53.7482 19.7016 54.365 20.5796 53.9628 21.3115Z" fill="url(#paint0_linear_52_295)"/>
<path d="M43.5651 15.5651L30.2933 18.2108C30.1873 18.2319 30.0911 18.2883 30.02 18.3711C29.9489 18.4539 29.9069 18.5584 29.9005 18.6681L29.0841 32.6955C29.0796 32.7724 29.0928 32.8493 29.1227 32.9202C29.1525 32.991 29.1982 33.0538 29.256 33.1035C29.3139 33.1533 29.3824 33.1886 29.456 33.2067C29.5296 33.2249 29.6064 33.2253 29.6802 33.208L33.3753 32.3404C33.721 32.2593 34.0334 32.5691 33.9623 32.9227L32.8645 38.3918C32.7907 38.7598 33.1303 39.0745 33.4836 38.9653L35.7659 38.2599C36.1197 38.1507 36.4597 38.4662 36.3848 38.8346L34.6403 47.4251C34.5311 47.9625 35.2337 48.2555 35.5266 47.7949L35.7224 47.4872L46.537 25.5304C46.7182 25.1627 46.4058 24.7435 46.0091 24.8215L42.2054 25.5683C41.8481 25.6384 41.544 25.2997 41.6448 24.9441L44.1273 16.1892C44.2283 15.8326 43.923 15.4938 43.5652 15.5651H43.5651Z" fill="url(#paint1_linear_52_295)"/>
<defs>
<linearGradient id="paint0_linear_52_295" x1="15.5947" y1="22.4796" x2="35.3699" y2="48.8785" gradientUnits="userSpaceOnUse">
<stop stop-color="#41D1FF"/>
<stop offset="1" stop-color="#BD34FE"/>
</linearGradient>
<linearGradient id="paint1_linear_52_295" x1="36.6769" y1="16.2835" x2="40.792" y2="44.0316" gradientUnits="userSpaceOnUse">
<stop stop-color="#FFEA83"/>
<stop offset="0.083" stop-color="#FFDD35"/>
<stop offset="1" stop-color="#FFA800"/>
</linearGradient>
</defs>
</svg>
