<svg width="70" height="70" viewBox="0 0 70 70" fill="none" xmlns="http://www.w3.org/2000/svg">
<path d="M15.5556 15.8796H54.4444V54.1204H15.5556V15.8796Z" fill="url(#paint0_linear_52_303)"/>
<path d="M18.6484 18.9207H51.3518V51.0795H18.6484V18.9207Z" fill="url(#paint1_linear_52_303)"/>
<path d="M24.9534 26.6576C24.9534 26.6576 27.4122 26.5929 29.4363 26.5929C31.4816 26.5929 32.9399 27.0741 33.919 27.9197C34.8548 28.7187 35.4858 30.0809 35.4858 31.6315C35.4858 33.1821 35.007 34.4509 34.1364 35.3431C33.0049 36.4943 31.6863 37.1758 29.4363 37.27C28.8147 37.2961 28.2394 37.3023 28.2394 37.3023V42.3428H24.9533L24.9534 26.6576ZM28.2393 34.5097C28.5963 34.5444 28.82 34.5277 29.3492 34.5213C31.1119 34.5002 32.1996 33.4283 32.1996 31.8073C32.1996 30.351 31.3027 29.1553 29.6105 29.0934C28.936 29.0687 28.2393 29.0934 28.2393 29.0934V34.5097Z" fill="url(#paint2_linear_52_303)"/>
<path d="M36.7399 38.8313C37.4021 39.2377 38.965 39.8463 40.0302 39.8463C41.1186 39.8463 41.568 39.4627 41.568 38.8648C41.568 38.266 41.2131 37.637 39.8641 37.1823C37.4738 36.3683 36.5507 35.3941 36.5747 34.0303C36.5747 31.8278 38.4204 30.1763 41.2839 30.1763C42.6328 30.1763 43.7104 30.6173 44.4198 30.9761V33.6196C43.8987 33.332 42.3961 32.6901 41.4024 32.6901C40.5262 32.6901 40.0296 33.0492 40.0296 33.647C40.0296 34.1977 40.4795 34.485 41.8994 34.9879C44.0998 35.7538 45.0229 36.8784 45.0463 38.6019C45.0463 40.7803 43.367 42.5125 40.0296 42.4074C38.8842 42.3714 37.6152 41.9186 36.7396 41.4405L36.7399 38.8313Z" fill="url(#paint3_linear_52_303)"/>
<defs>
<linearGradient id="paint0_linear_52_303" x1="25.0062" y1="13.8826" x2="39.9136" y2="45.3827" gradientUnits="userSpaceOnUse">
<stop stop-color="#A0CBFF"/>
<stop offset="0.394" stop-color="#A0CBFE"/>
<stop offset="0.583" stop-color="#8EC2FC"/>
<stop offset="0.784" stop-color="#83BCFB"/>
<stop offset="1" stop-color="#7FBAFB"/>
</linearGradient>
<linearGradient id="paint1_linear_52_303" x1="30.2977" y1="19.3739" x2="38.7236" y2="47.3742" gradientUnits="userSpaceOnUse">
<stop stop-color="#090058"/>
<stop offset="1" stop-color="#070033"/>
</linearGradient>
<linearGradient id="paint2_linear_52_303" x1="20.3696" y1="15.5587" x2="35.2769" y2="47.0585" gradientUnits="userSpaceOnUse">
<stop stop-color="#A0CBFF"/>
<stop offset="0.394" stop-color="#A0CBFE"/>
<stop offset="0.583" stop-color="#8EC2FC"/>
<stop offset="0.784" stop-color="#83BCFB"/>
<stop offset="1" stop-color="#7FBAFB"/>
</linearGradient>
<linearGradient id="paint3_linear_52_303" x1="28.8608" y1="11.4458" x2="43.8272" y2="43.0703" gradientUnits="userSpaceOnUse">
<stop stop-color="#A0CBFF"/>
<stop offset="0.394" stop-color="#A0CBFE"/>
<stop offset="0.583" stop-color="#8EC2FC"/>
<stop offset="0.784" stop-color="#83BCFB"/>
<stop offset="1" stop-color="#7FBAFB"/>
</linearGradient>
</defs>
</svg>
