<svg width="70" height="70" viewBox="0 0 70 70" fill="none" xmlns="http://www.w3.org/2000/svg">
<path d="M28.5185 54.4445C32.0963 54.4445 35 51.5408 35 47.963V41.4815H28.5185C24.9408 41.4815 22.037 44.3852 22.037 47.963C22.037 51.5408 24.9408 54.4445 28.5185 54.4445Z" fill="#0ACF83"/>
<path d="M22.037 35C22.037 31.4222 24.9408 28.5185 28.5185 28.5185H35V41.4814H28.5185C24.9408 41.4814 22.037 38.5777 22.037 35Z" fill="#A259FF"/>
<path d="M22.037 22.037C22.037 18.4593 24.9408 15.5556 28.5185 15.5556H35V28.5185H28.5185C24.9408 28.5185 22.037 25.6148 22.037 22.037Z" fill="#F24E1E"/>
<path d="M35 15.5556H41.4815C45.0593 15.5556 47.963 18.4593 47.963 22.037C47.963 25.6148 45.0593 28.5185 41.4815 28.5185H35V15.5556Z" fill="#FF7262"/>
<path d="M47.963 35C47.963 38.5777 45.0593 41.4814 41.4815 41.4814C37.9037 41.4814 35 38.5777 35 35C35 31.4222 37.9037 28.5185 41.4815 28.5185C45.0593 28.5185 47.963 31.4222 47.963 35Z" fill="#1ABCFE"/>
</svg>
