<svg width="70" height="70" viewBox="0 0 70 70" fill="none" xmlns="http://www.w3.org/2000/svg">
<path d="M35 38.4286C36.8935 38.4286 38.4285 36.8936 38.4285 35C38.4285 33.1065 36.8935 31.5715 35 31.5715C33.1065 31.5715 31.5715 33.1065 31.5715 35C31.5715 36.8936 33.1065 38.4286 35 38.4286Z" fill="#61DAFB"/>
<path fill-rule="evenodd" clip-rule="evenodd" d="M18.8863 33.1937C18.1099 33.8946 17.853 34.5071 17.853 35C17.853 35.4929 18.1099 36.1054 18.8863 36.8063C19.6626 37.5071 20.8561 38.1955 22.4372 38.7992C25.591 40.0033 30.0322 40.7743 35 40.7743C39.9678 40.7743 44.409 40.0033 47.5628 38.7992C49.1439 38.1955 50.3374 37.5071 51.1137 36.8063C51.8901 36.1054 52.147 35.4929 52.147 35C52.147 34.5071 51.8901 33.8946 51.1137 33.1937C50.3374 32.4929 49.1439 31.8046 47.5628 31.2008C44.409 29.9967 39.9678 29.2257 35 29.2257C30.0322 29.2257 25.591 29.9967 22.4372 31.2008C20.8561 31.8046 19.6626 32.4929 18.8863 33.1937ZM21.5455 28.8653C25.0502 27.5271 29.8074 26.7257 35 26.7257C40.1926 26.7257 44.9499 27.5271 48.4545 28.8653C50.2026 29.5327 51.7033 30.358 52.7889 31.338C53.8744 32.3178 54.647 33.5532 54.647 35C54.647 36.4468 53.8744 37.6822 52.7889 38.662C51.7033 39.642 50.2026 40.4673 48.4545 41.1347C44.9499 42.4729 40.1926 43.2743 35 43.2743C29.8074 43.2743 25.0502 42.4729 21.5455 41.1347C19.7974 40.4673 18.2967 39.642 17.2111 38.662C16.1256 37.6822 15.353 36.4468 15.353 35C15.353 33.5532 16.1256 32.3178 17.2111 31.338C18.2967 30.358 19.7974 29.5327 21.5455 28.8653Z" fill="#61DAFB"/>
<path fill-rule="evenodd" clip-rule="evenodd" d="M28.5075 20.142C27.5123 19.82 26.8534 19.9038 26.4265 20.1502C25.9996 20.3967 25.5976 20.9255 25.3788 21.9483C25.1601 22.9709 25.1607 24.3487 25.4284 26.0199C25.9625 29.3532 27.5154 33.5849 29.9993 37.8872C32.4832 42.1894 35.3715 45.6501 37.9912 47.7793C39.3046 48.8467 40.4975 49.5361 41.4925 49.858C42.4877 50.18 43.1466 50.0962 43.5735 49.8497C44.0004 49.6033 44.4024 49.0745 44.6211 48.0517C44.8399 47.029 44.8393 45.6513 44.5715 43.9801C44.0375 40.6468 42.4846 36.4151 40.0007 32.1128C37.5168 27.8106 34.6285 24.3499 32.0088 22.2207C30.6954 21.1533 29.5025 20.4639 28.5075 20.142ZM33.5855 20.2807C36.4967 22.6467 39.5694 26.3659 42.1657 30.8628C44.762 35.3598 46.4466 39.8804 47.0401 43.5846C47.3361 45.4322 47.3717 47.1444 47.0658 48.5746C46.76 50.0046 46.0764 51.2914 44.8235 52.0148C43.5705 52.7382 42.1143 52.6868 40.723 52.2366C39.3315 51.7865 37.8665 50.8995 36.4144 49.7193C33.5032 47.3533 30.4305 43.6341 27.8342 39.1372C25.2379 34.6402 23.5534 30.1196 22.9599 26.4154C22.6639 24.5678 22.6282 22.8556 22.9341 21.4254C23.24 19.9954 23.9235 18.7086 25.1765 17.9852C26.4294 17.2618 27.8856 17.3132 29.277 17.7633C30.6685 18.2135 32.1335 19.1005 33.5855 20.2807Z" fill="#61DAFB"/>
<path fill-rule="evenodd" clip-rule="evenodd" d="M44.6212 21.9483C44.4024 20.9255 44.0004 20.3967 43.5735 20.1503C43.1466 19.9038 42.4877 19.82 41.4925 20.142C40.4975 20.4639 39.3046 21.1533 37.9912 22.2207C35.3715 24.3499 32.4832 27.8106 29.9993 32.1128C27.5154 36.4151 25.9625 40.6468 25.4284 43.9801C25.1607 45.6513 25.1601 47.0291 25.3788 48.0517C25.5976 49.0745 25.9996 49.6033 26.4265 49.8498C26.8534 50.0962 27.5123 50.18 28.5075 49.858C29.5025 49.5361 30.6954 48.8467 32.0088 47.7793C34.6285 45.6501 37.5168 42.1894 40.0007 37.8872C42.4846 33.5849 44.0375 29.3532 44.5716 26.0199C44.8393 24.3487 44.8399 22.9709 44.6212 21.9483ZM47.0401 26.4154C46.4466 30.1196 44.7621 34.6402 42.1658 39.1372C39.5695 43.6341 36.4968 47.3533 33.5856 49.7193C32.1335 50.8995 30.6685 51.7865 29.277 52.2366C27.8856 52.6868 26.4294 52.7382 25.1765 52.0148C23.9235 51.2914 23.24 50.0046 22.9341 48.5746C22.6282 47.1444 22.6639 45.4322 22.9599 43.5846C23.5534 39.8804 25.2379 35.3598 27.8342 30.8628C30.4305 26.3659 33.5032 22.6467 36.4144 20.2807C37.8665 19.1005 39.3315 18.2135 40.723 17.7634C42.1144 17.3132 43.5706 17.2618 44.8235 17.9852C46.0765 18.7086 46.76 19.9954 47.0659 21.4254C47.3718 22.8556 47.3361 24.5678 47.0401 26.4154Z" fill="#61DAFB"/>
</svg>
