<svg width="70" height="70" viewBox="0 0 70 70" fill="none" xmlns="http://www.w3.org/2000/svg">
<path d="M54.4444 15.5556H15.5556V54.4444H54.4444V15.5556Z" fill="#F7DF1E"/>
<path d="M41.679 45.9377C42.4623 47.2167 43.4815 48.1568 45.2839 48.1568C46.7981 48.1568 47.7654 47.4 47.7654 46.3543C47.7654 45.1012 46.7716 44.6574 45.1049 43.9284L44.1914 43.5364C41.5543 42.413 39.8025 41.0056 39.8025 38.0303C39.8025 35.2895 41.8907 33.2031 45.1543 33.2031C47.4778 33.2031 49.1481 34.0117 50.3519 36.129L47.5062 37.9562C46.8796 36.8327 46.2037 36.3901 45.1543 36.3901C44.0839 36.3901 43.4056 37.0691 43.4056 37.9562C43.4056 39.0525 44.0846 39.4963 45.6525 40.1753L46.566 40.5667C49.671 41.8982 51.4241 43.2556 51.4241 46.3074C51.4241 49.5975 48.8395 51.4 45.3685 51.4C41.9747 51.4 39.7821 49.7827 38.7093 47.663L41.679 45.9377ZM28.7698 46.2543C29.3438 47.2728 29.866 48.134 31.1216 48.134C32.3222 48.134 33.0796 47.6642 33.0796 45.8377V33.4117H36.7339V45.887C36.7339 49.671 34.5154 51.3932 31.2772 51.3932C28.3512 51.3932 26.6568 49.879 25.7951 48.0553L28.7698 46.2543Z" fill="black"/>
</svg>
