<svg width="70" height="70" viewBox="0 0 70 70" fill="none" xmlns="http://www.w3.org/2000/svg">
<path d="M34.8783 15.6617L35.9161 17.6109C36.1494 17.9706 36.4021 18.289 36.6999 18.5855C37.5727 19.4474 38.3863 20.3674 39.1351 21.3391C40.8935 23.648 42.0795 26.212 42.9265 28.9851C43.4345 30.679 43.7103 32.4167 43.731 34.1739C43.816 39.4272 42.0151 43.9379 38.3841 47.6868C37.7935 48.2813 37.1554 48.8267 36.4763 49.3176C36.1166 49.3176 35.9464 49.0417 35.7982 48.7877C35.5282 48.3168 35.3485 47.7996 35.2684 47.2627C35.1408 46.6271 35.0569 45.9916 35.0982 45.3354V45.0389C35.0691 44.9757 34.7519 15.8112 34.8783 15.6617Z" fill="#599636"/>
<path d="M34.8783 15.5973C34.8358 15.5123 34.7932 15.5767 34.7507 15.618C34.7714 16.0433 34.6231 16.4225 34.391 16.7846C34.1358 17.1443 33.798 17.4201 33.459 17.7166C31.5754 19.3474 30.0929 21.3172 28.9056 23.5204C27.3259 26.4854 26.5117 29.6632 26.2808 33.0086C26.1751 34.2152 26.6624 38.4733 27.0428 39.7018C28.0805 42.9634 29.9446 45.6963 32.3592 48.0684C32.9522 48.6395 33.5866 49.1693 34.2428 49.6785C34.4335 49.6785 34.4542 49.5084 34.4979 49.382C34.5816 49.1116 34.6454 48.8354 34.6887 48.5557L35.114 45.3792L34.8783 15.5973Z" fill="#6CAC48"/>
<path d="M35.9161 50.6081C35.9586 50.122 36.1919 49.7186 36.4459 49.3164C36.1907 49.2106 36.0011 49.0004 35.8529 48.7659C35.725 48.5438 35.6192 48.3098 35.5369 48.0671C35.2404 47.1776 35.1772 46.2444 35.0922 45.3354V44.7849C34.9865 44.87 34.9646 45.5894 34.9646 45.6963C34.9027 46.657 34.7753 47.6124 34.583 48.5557C34.5198 48.9372 34.4773 49.3176 34.2428 49.6566C34.2428 49.6991 34.2428 49.7417 34.2634 49.8049C34.645 50.9277 34.7495 52.0712 34.8139 53.2365V53.6618C34.8139 54.1698 34.7932 54.0629 35.2149 54.233C35.385 54.2962 35.5746 54.318 35.7447 54.4444C35.8723 54.4444 35.893 54.3387 35.893 54.2536L35.8298 53.5549V51.6058C35.8091 51.2655 35.8723 50.9277 35.9149 50.6093L35.9161 50.6081Z" fill="#C2BFBF"/>
</svg>
