<svg width="70" height="70" viewBox="0 0 70 70" fill="none" xmlns="http://www.w3.org/2000/svg">
<path d="M24.7317 29.4154H32.0665V29.9956H25.404V34.3622H31.6692V34.9423H25.404V39.7365H32.1429V40.3166H24.7317V29.4154ZM32.7236 29.4154H33.5029L36.9564 34.2095L40.4862 29.4154L45.2874 23.3257L37.3995 34.7133L41.4642 40.3166H40.6543L36.9564 35.2172L33.2431 40.3166H32.4485L36.5438 34.7133L32.7236 29.4154ZM41.7545 29.9956V29.4154H50.1132V29.9956H46.2624V40.3166H45.59V29.9956H41.7545Z" fill="white"/>
<path d="M15.5555 29.4154H16.396L27.9852 46.6743L23.196 40.3166L16.2585 30.2398L16.2279 40.3166H15.5555V29.4154Z" fill="white"/>
<path d="M50.0454 39.5614C50.1844 39.5614 50.2858 39.4554 50.2858 39.3186C50.2858 39.1817 50.1844 39.0757 50.0454 39.0757C49.908 39.0757 49.805 39.1817 49.805 39.3186C49.805 39.4554 49.908 39.5614 50.0454 39.5614ZM50.7061 38.9226C50.7061 39.3267 50.9988 39.5907 51.4256 39.5907C51.8802 39.5907 52.155 39.3186 52.155 38.846V37.1822H51.7887V38.8443C51.7887 39.1067 51.6562 39.2469 51.4224 39.2469C51.213 39.2469 51.0708 39.1165 51.0659 38.9226H50.7061ZM52.6341 38.9014C52.6603 39.3218 53.0119 39.5907 53.5352 39.5907C54.0945 39.5907 54.4444 39.3088 54.4444 38.859C54.4444 38.5054 54.2449 38.3098 53.7609 38.1974L53.5009 38.1338C53.1934 38.0621 53.0691 37.966 53.0691 37.7981C53.0691 37.5863 53.2621 37.4478 53.5516 37.4478C53.8263 37.4478 54.016 37.583 54.0503 37.7998H54.4068C54.3856 37.4038 54.0356 37.1251 53.5565 37.1251C53.0413 37.1251 52.6979 37.4038 52.6979 37.8226C52.6979 38.1681 52.8925 38.3734 53.3193 38.4728L53.6235 38.5461C53.9359 38.6195 54.0732 38.727 54.0732 38.9063C54.0732 39.1149 53.8574 39.2664 53.563 39.2664C53.2474 39.2664 53.0282 39.1246 52.9972 38.9014H52.6341Z" fill="white"/>
</svg>
