<svg width="70" height="70" viewBox="0 0 70 70" fill="none" xmlns="http://www.w3.org/2000/svg">
<path d="M33.4078 15.9704C34.372 15.4185 35.628 15.416 36.5914 15.9704C41.4384 18.7092 46.2869 21.4437 51.133 24.1841C52.0445 24.6976 52.6542 25.712 52.6449 26.7623V43.2398C52.6517 44.3336 51.9817 45.3722 51.0201 45.874C46.1891 48.5977 41.3605 51.3247 36.5304 54.0484C35.5461 54.6111 34.265 54.5678 33.3115 53.9589C31.8632 53.1193 30.4123 52.2839 28.9639 51.4451C28.6679 51.2686 28.3342 51.1282 28.1252 50.8412C28.31 50.5922 28.6403 50.5611 28.9087 50.4524C29.5133 50.2602 30.0686 49.9516 30.624 49.6521C30.7644 49.556 30.9359 49.5929 31.0705 49.6789C32.309 50.389 33.5366 51.1197 34.7792 51.8231C35.0443 51.9761 35.3128 51.7729 35.5394 51.6466C40.2801 48.9672 45.0266 46.298 49.7665 43.6178C49.9421 43.5333 50.0392 43.3469 50.0249 43.1545C50.0283 37.7189 50.0258 32.2823 50.0266 26.8467C50.0467 26.6285 49.9204 26.4278 49.723 26.3384C44.9087 23.6272 40.097 20.9118 35.2835 18.1999C35.2001 18.1426 35.1014 18.1118 35.0001 18.1117C34.8989 18.1115 34.8001 18.142 34.7165 18.1991C29.9031 20.9118 25.0921 23.6297 20.2787 26.3408C20.082 26.4303 19.95 26.6276 19.9734 26.8467C19.9743 32.2823 19.9734 37.7189 19.9734 43.1553C19.9651 43.2492 19.9857 43.3434 20.0325 43.4252C20.0793 43.507 20.15 43.5724 20.2352 43.6128C21.5197 44.3412 22.8058 45.0645 24.0912 45.7904C24.8153 46.1801 25.7043 46.4117 26.5021 46.1131C27.2061 45.8606 27.6996 45.1422 27.6862 44.3947C27.6928 38.9908 27.6828 33.5861 27.6912 28.183C27.6736 27.9431 27.9011 27.7449 28.1344 27.7675C28.7515 27.7634 29.3695 27.7592 29.9867 27.7692C30.2443 27.7634 30.4216 28.0217 30.3898 28.2634C30.3873 33.7015 30.3964 39.1397 30.3856 44.5778C30.3873 46.0271 29.7918 47.6041 28.4513 48.3132C26.7997 49.1688 24.7585 48.9873 23.1269 48.167C21.7144 47.462 20.3665 46.63 18.9791 45.8747C18.015 45.3757 17.3484 44.3329 17.3551 43.24V26.7623C17.345 25.6902 17.979 24.6574 18.9189 24.1515C23.7491 21.4256 28.5784 18.6976 33.4078 15.9704Z" fill="#8CC84B"/>
<path d="M37.6216 27.3845C39.7283 27.2489 41.9835 27.3042 43.8792 28.342C45.347 29.1373 46.1607 30.8064 46.1866 32.437C46.1456 32.657 45.9157 32.7783 45.7057 32.7632C45.0945 32.7624 44.4831 32.7715 43.8719 32.759C43.6126 32.769 43.4619 32.5299 43.4294 32.3007C43.2538 31.5205 42.8283 30.7478 42.0939 30.3715C40.9666 29.8071 39.6596 29.8355 38.4304 29.8473C37.533 29.8949 36.568 29.9726 35.8078 30.5003C35.2241 30.9 35.0468 31.707 35.2551 32.3568C35.4515 32.8234 35.9902 32.974 36.4309 33.1128C38.9697 33.7768 41.66 33.7107 44.1503 34.5845C45.1813 34.9408 46.1899 35.6333 46.5428 36.7128C47.0045 38.1596 46.8021 39.889 45.7727 41.0504C44.938 42.0063 43.7222 42.5265 42.5096 42.809C40.8964 43.1687 39.2223 43.1779 37.5841 43.0182C36.0436 42.8426 34.4406 42.4378 33.2514 41.3883C32.2345 40.5053 31.7378 39.1295 31.7871 37.8017C31.7989 37.5775 32.0222 37.4211 32.237 37.4395C32.8525 37.4345 33.468 37.4329 34.0835 37.4403C34.3294 37.4227 34.5117 37.6352 34.5243 37.8669C34.6378 38.6103 34.9172 39.3905 35.5654 39.8312C36.8164 40.6383 38.386 40.583 39.8184 40.6056C41.0051 40.5529 42.3373 40.537 43.3057 39.7527C43.8166 39.3053 43.968 38.5568 43.8299 37.9129C43.6804 37.3693 43.1117 37.116 42.6233 36.9503C40.1171 36.1575 37.3967 36.4452 34.9147 35.5486C33.9071 35.1926 32.9327 34.5193 32.5456 33.4841C32.0054 32.019 32.2529 30.2068 33.3902 29.0845C34.4991 27.9682 36.0997 27.5383 37.6216 27.3844V27.3845Z" fill="#8CC84B"/>
</svg>
